<?xml version="1.0" standalone="no"?>
<!DOCTYPE svg PUBLIC "-//W3C//DTD SVG 20010904//EN"
 "http://www.w3.org/TR/2001/REC-SVG-20010904/DTD/svg10.dtd">
<svg version="1.0" xmlns="http://www.w3.org/2000/svg"
 width="150.000000pt" height="41.000000pt" viewBox="0 0 150.000000 41.000000"
 preserveAspectRatio="xMidYMid meet">
<metadata>
Created by potrace 1.16, written by Peter Selinger 2001-2019
</metadata>
<g transform="translate(0.000000,41.000000) scale(0.100000,-0.100000)"
fill="#FFFFFF" stroke="none">
<path d="M52 208 l-2 -158 160 0 160 0 0 155 c0 141 -2 155 -17 154 -11 0 -13
-3 -5 -6 9 -3 12 -43 12 -149 l0 -144 -150 0 -149 0 -4 153 -3 152 -2 -157z"/>
<path d="M133 353 c37 -2 97 -2 135 0 37 2 6 3 -68 3 -74 0 -105 -1 -67 -3z"/>
<path d="M410 205 l0 -155 160 0 160 0 0 155 0 155 -160 0 -160 0 0 -155z
m310 0 l0 -145 -150 0 -150 0 0 145 0 145 150 0 150 0 0 -145z"/>
<path d="M507 313 c-4 -3 -7 -55 -7 -115 0 -100 1 -108 19 -108 16 0 20 8 23
46 l3 46 34 -46 c21 -27 43 -46 54 -46 18 0 18 1 3 22 -51 71 -49 64 -22 92
39 38 33 77 -15 101 -29 16 -81 20 -92 8z m74 -33 c23 -13 25 -55 3 -64 -35
-13 -44 -7 -44 34 0 41 8 47 41 30z"/>
<path d="M770 205 l0 -155 160 0 160 0 0 155 0 155 -160 0 -160 0 0 -155z
m218 4 c28 -61 52 -115 52 -120 0 -21 -29 -5 -46 26 -9 16 -23 21 -66 23 -53
3 -56 2 -66 -26 -8 -25 -42 -42 -42 -21 0 12 104 229 110 229 3 0 29 -50 58
-111z"/>
<path d="M911 213 l-21 -43 40 0 41 0 -14 28 c-8 15 -16 34 -19 42 -3 10 -12
0 -27 -27z"/>
<path d="M1130 205 l0 -155 160 0 160 0 0 155 0 155 -160 0 -160 0 0 -155z
m310 0 l0 -145 -150 0 -150 0 0 145 0 145 150 0 150 0 0 -145z"/>
<path d="M1217 313 c-17 -16 -3 -23 48 -23 30 0 55 -2 55 -4 0 -3 -25 -45 -55
-95 -30 -50 -55 -93 -55 -96 0 -3 38 -5 85 -5 69 0 85 3 85 15 0 12 -13 15
-60 15 l-60 0 25 41 c15 22 35 56 46 75 11 20 27 46 35 60 l16 24 -79 0 c-44
0 -83 -3 -86 -7z"/>
<path d="M149 297 c-44 -30 -63 -69 -54 -114 8 -42 51 -89 90 -99 43 -11 103
13 125 49 32 51 27 67 -20 67 -42 0 -55 -18 -20 -27 25 -7 25 -15 2 -36 -56
-51 -142 -12 -142 64 0 71 81 115 136 74 24 -18 44 -19 44 -2 0 20 -54 47 -93
47 -19 0 -49 -10 -68 -23z"/>
</g>
</svg>
