<svg xmlns="http://www.w3.org/2000/svg" viewBox="0 0 2303.1 2374"><path d="M906 2248h492M658 2153h987M513 2059h1278M410 1969l1487-4M319 1871h1660M259 1777h1785M208 1682h1887M168 1588h1967M139 1494h2025M119 1400h2065M108 1305h812M1379 1305h816M106 1211h776M1421 1211h776M112 1117h756M1435 1117h756M126 1023h742M1435 1023h742M150 929h718M1435 929h718M184 834h684M1435 834h685M228 740h640M1435 740h640M284 646h584M1435 646h584M356 552h512M1435 552l506-7M447 458h421M1435 458l417-4M567 363h301M1435 363h301" fill="none" stroke="#000" stroke-width="34" stroke-linecap="round"/><path d="M741 269h127" fill="none" stroke="#000" stroke-width="34" stroke-linecap="round" stroke-miterlimit=".1"/><path d="M1435 269h127" fill="none" stroke="#000" stroke-width="34" stroke-linecap="round"/><path d="M1109 109c-62 0-112 54-112 121v945c0 67 50 121 112 121h85c62 0 112-54 112-121V230c0-67-50-121-112-121z"/></svg>