<?xml version="1.0" standalone="no"?>
<!DOCTYPE svg PUBLIC "-//W3C//DTD SVG 20010904//EN"
 "http://www.w3.org/TR/2001/REC-SVG-20010904/DTD/svg10.dtd">
<svg version="1.0" xmlns="http://www.w3.org/2000/svg"
 width="1654.000000pt" height="1063.000000pt" viewBox="0 0 1654.000000 1063.000000"
 preserveAspectRatio="xMidYMid meet">
<metadata>
Created by potrace 1.16, written by Peter Selinger 2001-2019
</metadata>
<g transform="translate(0.000000,1063.000000) scale(0.100000,-0.100000)"
fill="#FFFFFF" stroke="none">
<path d="M3360 9356 c0 -6 7 -29 15 -51 22 -63 20 -68 -22 -60 -21 4 -50 13
-65 21 -15 8 -31 14 -35 14 -4 0 -8 -44 -7 -97 1 -54 4 -97 8 -96 3 2 19 9 34
17 15 8 45 18 66 22 l39 7 -7 -39 c-4 -22 -15 -52 -25 -69 -20 -34 -8 -33
-184 -15 -212 22 -384 -13 -476 -96 -28 -25 -53 -53 -56 -63 -4 -13 -12 -17
-29 -14 -17 4 -28 -2 -40 -18 -20 -29 -21 -102 -2 -132 12 -19 12 -60 0 -272
-7 -137 -13 -273 -14 -301 l0 -51 -187 -7 c-103 -4 -189 -9 -191 -11 -24 -23
-39 -560 -23 -795 75 -1099 469 -1880 1160 -2302 52 -32 103 -58 113 -58 26 0
176 92 291 178 548 412 872 1093 969 2032 16 156 16 709 0 839 -6 54 -17 98
-24 103 -7 4 -90 8 -185 8 l-172 0 -3 308 c-2 231 0 314 9 334 27 56 7 148
-32 148 -7 0 -38 24 -68 54 -44 44 -67 58 -123 76 -87 28 -288 38 -429 21 -88
-10 -100 -10 -117 5 -20 18 -54 121 -44 132 4 3 30 -2 60 -11 29 -9 55 -17 58
-17 2 0 5 30 5 68 0 37 2 76 4 87 5 23 -5 23 -74 -1 -26 -9 -50 -14 -53 -11
-3 3 2 29 11 57 9 28 15 53 14 54 -2 2 -41 6 -86 8 -56 3 -83 1 -83 -6z m113
-92 l-6 -54 36 0 c20 0 47 4 61 10 25 9 26 8 26 -30 0 -22 -3 -40 -7 -40 -5 1
-28 5 -53 10 -60 11 -70 2 -59 -58 5 -26 12 -55 15 -64 5 -15 -1 -18 -41 -18
-41 0 -46 2 -40 18 15 38 25 116 16 125 -8 8 -81 -2 -121 -17 -12 -5 -15 3
-16 39 -1 38 2 45 15 40 37 -15 107 -23 117 -14 8 6 9 23 3 52 -12 63 -12 63
25 59 l34 -4 -5 -54z m-63 -744 c0 -300 -3 -460 -10 -460 -7 0 -10 160 -10
460 0 300 3 460 10 460 7 0 10 -160 10 -460z m97 -3 c2 -397 1 -457 -12 -457
-13 0 -15 61 -15 461 0 364 3 460 13 457 9 -4 13 -107 14 -461z m-52 424 c3
-5 1 -12 -5 -16 -5 -3 -10 1 -10 9 0 18 6 21 15 7z m5 -70 c0 -6 -4 -13 -10
-16 -5 -3 -10 1 -10 9 0 9 5 16 10 16 6 0 10 -4 10 -9z m-840 -116 c0 -45 -13
-67 -24 -39 -13 35 -2 99 15 88 5 -3 9 -25 9 -49z m140 0 c0 -11 -6 -30 -14
-41 -21 -27 -50 -7 -54 37 -5 44 22 67 50 42 10 -9 18 -26 18 -38z m392 38
c24 -21 23 -55 -2 -78 -46 -41 -116 29 -75 75 22 24 52 26 77 3z m308 7 c0 -5
-4 -10 -10 -10 -5 0 -10 5 -10 10 0 6 5 10 10 10 6 0 10 -4 10 -10z m324 -6
c35 -34 11 -84 -40 -84 -43 0 -64 34 -46 75 14 29 61 35 86 9z m516 -39 c0
-16 -4 -37 -10 -45 -7 -11 -11 -9 -19 13 -6 16 -11 30 -11 32 0 2 5 16 11 32
8 22 12 24 19 13 6 -8 10 -28 10 -45z m-112 4 c3 -40 -15 -63 -42 -53 -40 15
-25 98 17 92 17 -2 23 -11 25 -39z m-728 -29 c0 -5 -4 -10 -10 -10 -5 0 -10 5
-10 10 0 6 5 10 10 10 6 0 10 -4 10 -10z m-774 -69 c7 -4 -3 -65 -31 -192 -49
-214 -53 -229 -54 -174 -1 76 18 365 24 375 6 10 36 6 61 -9z m906 3 c36 -12
55 -13 84 -5 21 6 39 9 41 7 2 -2 -37 -104 -86 -227 l-90 -224 -1 233 c0 127
1 232 3 232 2 0 24 -7 49 -16z m-526 -10 c21 -9 19 -16 -71 -254 -52 -135 -97
-251 -102 -259 -6 -9 -32 74 -79 247 l-71 261 26 9 c33 11 269 8 297 -4z m179
4 c6 -1 34 2 63 6 l52 8 0 -248 c0 -136 -2 -245 -4 -243 -4 4 -191 426 -207
468 -9 24 -9 24 38 16 26 -4 53 -7 58 -7z m215 2 c0 -5 -4 -10 -10 -10 -5 0
-10 5 -10 10 0 6 5 10 10 10 6 0 10 -4 10 -10z m520 -1 c14 -1 45 1 70 5 81
12 81 17 5 -266 -37 -139 -71 -256 -74 -260 -5 -6 -98 224 -207 517 -4 9 87
10 206 4z m295 -151 c3 -90 5 -199 3 -243 l-3 -79 -48 215 c-26 118 -50 225
-53 236 -6 22 7 29 67 32 l27 1 7 -162z m-415 -171 c88 -230 109 -299 85 -275
-3 3 -45 112 -93 244 -56 154 -92 240 -102 242 -11 2 -40 -62 -110 -242 -67
-174 -96 -237 -98 -218 -5 33 199 549 209 530 3 -7 53 -134 109 -281z m-617
14 c64 -148 117 -274 117 -280 0 -40 -30 18 -120 234 -76 180 -107 245 -118
243 -10 -2 -33 -50 -60 -123 -38 -103 -58 -142 -69 -131 -4 4 120 326 126 326
4 0 59 -121 124 -269z m217 239 c0 -5 -4 -10 -10 -10 -5 0 -10 5 -10 10 0 6 5
10 10 10 6 0 10 -4 10 -10z m729 -171 c22 -96 37 -176 35 -178 -9 -9 -15 11
-41 128 -21 93 -30 121 -42 119 -10 -2 -30 -64 -67 -211 -28 -115 -55 -211
-58 -214 -19 -20 -9 30 56 270 39 147 73 265 75 264 1 -2 21 -82 42 -178z
m-1421 14 c23 -87 55 -206 71 -265 22 -82 26 -108 16 -108 -9 0 -30 69 -65
215 -64 264 -70 270 -106 100 -14 -69 -34 -120 -34 -89 -1 20 65 304 70 304 3
0 25 -71 48 -157z m692 87 c0 -5 -4 -10 -10 -10 -5 0 -10 5 -10 10 0 6 5 10
10 10 6 0 10 -4 10 -10z m-240 -253 c46 -109 81 -200 78 -203 -3 -2 -80 -3
-171 -2 l-166 3 18 41 c13 29 35 51 79 80 50 32 60 43 55 59 -3 11 -10 22 -14
23 -5 2 -9 14 -9 28 0 17 -4 22 -15 18 -21 -8 -19 -2 17 94 19 52 34 79 38 70
4 -7 45 -102 90 -211z m575 101 c22 -62 42 -116 43 -120 2 -5 -22 3 -53 17
-69 30 -69 30 -62 5 4 -17 2 -20 -14 -15 -13 4 -19 2 -19 -9 0 -9 -7 -16 -15
-16 -20 0 -19 -30 3 -56 27 -34 81 -56 149 -62 57 -4 64 -7 69 -29 4 -13 4
-26 2 -29 -3 -2 -75 -1 -161 3 l-156 8 81 208 c45 114 84 207 87 207 3 0 24
-50 46 -112z m-335 81 c0 -5 -4 -9 -10 -9 -5 0 -10 7 -10 16 0 8 5 12 10 9 6
-3 10 -10 10 -16z m-5 -58 c3 -5 1 -12 -5 -16 -5 -3 -10 1 -10 9 0 18 6 21 15
7z m-681 -188 l33 -143 -79 0 c-65 0 -79 3 -75 14 3 8 9 31 13 51 5 29 16 42
52 65 40 25 43 28 23 35 -11 3 -21 13 -21 21 0 8 -4 14 -10 14 -13 0 -13 17 2
82 13 64 13 65 62 -139z m1391 91 c4 -18 -1 -23 -25 -26 -33 -5 -35 -1 -19 57
18 69 21 72 30 30 5 -22 11 -50 14 -61z m-705 27 c0 -6 -4 -13 -10 -16 -5 -3
-10 1 -10 9 0 9 5 16 10 16 6 0 10 -4 10 -9z m0 -71 c0 -5 -4 -10 -10 -10 -5
0 -10 5 -10 10 0 6 5 10 10 10 6 0 10 -4 10 -10z m0 -70 c0 -5 -4 -10 -10 -10
-5 0 -10 5 -10 10 0 6 5 10 10 10 6 0 10 -4 10 -10z m784 -6 c3 -8 2 -12 -4
-9 -6 3 -10 10 -10 16 0 14 7 11 14 -7z m-119 -24 c22 -11 45 -20 52 -20 15 0
33 -32 33 -59 0 -19 -6 -21 -75 -21 -61 0 -75 3 -75 16 0 15 21 104 24 104 1
0 19 -9 41 -20z m-1500 -47 c-7 -41 -12 -50 -21 -41 -9 9 7 78 18 78 6 0 8
-14 3 -37z m1638 -10 c6 -36 3 -52 -8 -41 -11 11 -18 78 -8 78 6 0 13 -17 16
-37z m-803 17 c0 -5 -4 -10 -10 -10 -5 0 -10 5 -10 10 0 6 5 10 10 10 6 0 10
-4 10 -10z m-525 -29 c-3 -12 -13 -21 -20 -21 -16 0 -9 30 9 42 15 10 19 3 11
-21z m565 -211 c41 -16 85 -29 98 -30 13 0 37 -8 55 -17 18 -10 57 -20 87 -23
l55 -6 -30 -13 c-35 -16 -79 -18 -118 -7 -25 8 -28 6 -25 -10 5 -28 47 -45 93
-38 39 5 41 4 63 -38 12 -24 22 -47 22 -53 -1 -5 -8 2 -16 18 -24 45 -36 33
-29 -28 5 -40 4 -55 -5 -55 -9 0 -10 -19 -6 -72 3 -40 3 -67 0 -60 -12 26 -22
9 -28 -50 -4 -40 -18 -86 -38 -126 -17 -34 -32 -61 -34 -60 -1 2 6 28 16 58
22 64 26 114 8 108 -7 -3 -15 -18 -19 -34 -5 -27 -62 -151 -132 -288 -27 -53
-29 -65 -23 -120 6 -56 5 -59 -11 -44 -26 27 -20 97 18 178 17 39 29 73 26 77
-4 3 -8 4 -10 2 -40 -58 -66 -111 -89 -188 -15 -52 -28 -100 -28 -108 0 -21
-29 -87 -36 -80 -3 3 1 18 9 34 8 15 18 50 21 76 4 26 14 63 22 82 16 39 18
75 5 75 -12 0 -48 -102 -62 -177 -10 -54 -44 -131 -54 -122 -6 7 27 134 47
179 33 74 39 100 22 100 -21 0 -69 -110 -87 -198 -15 -71 -56 -158 -57 -119 0
10 4 27 10 37 5 10 14 49 20 87 5 38 18 89 30 114 11 24 20 50 20 57 0 23 -28
12 -39 -15 -15 -37 -61 -200 -61 -216 0 -21 -21 -89 -26 -84 -13 12 -21 169
-11 207 8 30 8 43 -1 52 -9 9 -12 8 -12 -7 0 -18 -1 -18 -13 -1 -11 15 -16 9
-42 -54 -17 -40 -45 -84 -64 -103 -35 -33 -34 -24 4 28 25 34 95 178 95 194 0
6 -6 11 -14 11 -7 0 -30 -37 -50 -82 -21 -46 -54 -100 -74 -121 -29 -30 -38
-48 -44 -90 -6 -48 -7 -47 -3 13 3 48 14 88 43 155 44 99 58 150 44 159 -5 3
-32 -6 -61 -19 -59 -29 -83 -31 -101 -10 -11 13 -7 15 28 15 27 0 50 7 69 23
15 13 40 31 56 40 31 20 35 37 10 37 -16 1 -15 2 2 12 11 6 49 39 85 72 80 75
122 96 189 96 40 0 51 3 51 16 0 9 -9 18 -20 21 -23 6 -17 23 9 23 32 0 144
80 214 152 63 65 80 101 37 78 -32 -17 -48 -11 -106 40 -54 50 -89 70 -121 70
-9 0 -41 -27 -72 -60 -54 -59 -57 -60 -84 -48 -39 18 -30 42 17 48 21 3 43 12
49 21 21 34 -19 107 -52 93 -9 -4 -29 -9 -46 -12 -16 -2 -38 -14 -47 -25 -9
-12 -20 -19 -24 -15 -4 4 -2 14 4 21 9 10 7 19 -5 36 -21 30 -5 41 61 41 31 0
60 7 82 21 22 13 46 19 71 17 31 -2 38 -8 44 -31 13 -49 27 -58 78 -51 25 4
47 8 49 9 11 9 -27 56 -62 75 -55 31 -67 41 -60 51 9 15 36 10 114 -21z m-73
-86 c-9 -9 -28 6 -21 18 4 6 10 6 17 -1 6 -6 8 -13 4 -17z m408 -34 c-27 -12
-43 -12 -25 0 8 5 22 9 30 9 10 0 8 -3 -5 -9z m-1150 -70 c-4 -19 -3 -30 4
-30 6 0 11 -18 11 -41 0 -55 10 -72 98 -161 65 -66 86 -81 138 -98 69 -23 167
-87 172 -111 5 -26 -45 -76 -86 -86 -32 -8 -37 -12 -34 -36 2 -23 -1 -27 -22
-27 -55 0 -149 116 -160 198 -4 29 -14 56 -25 66 -18 16 -19 16 -25 -8 -4 -16
-11 -23 -20 -20 -20 8 -39 59 -32 87 3 14 0 32 -9 43 -12 16 -17 17 -34 7 -12
-7 -27 -13 -35 -13 -15 0 -34 41 -38 85 -3 26 -8 31 -38 35 -24 3 -38 13 -47
30 -25 49 -10 109 15 63 9 -14 11 -14 22 6 l12 23 24 -23 c13 -12 26 -31 30
-42 9 -30 24 0 17 35 -5 23 -2 28 15 28 12 0 24 5 27 10 14 22 26 9 20 -20z
m1497 -27 c68 -26 93 -51 41 -39 -64 15 -152 18 -186 7 -37 -13 -107 -82 -134
-134 -8 -16 -20 -61 -28 -100 -8 -40 -19 -86 -25 -102 -10 -27 -13 -28 -21
-12 -7 12 -7 28 0 50 6 18 17 65 25 105 16 77 50 134 118 199 62 60 110 66
210 26z m21 -88 c22 -19 51 -35 64 -35 26 0 31 -15 7 -24 -45 -17 -84 -6 -136
40 -29 26 -55 48 -57 50 -2 2 15 4 38 4 34 0 51 -7 84 -35z m-396 -7 c-3 -8
-6 -5 -6 6 -1 11 2 17 5 13 3 -3 4 -12 1 -19z m453 -256 c8 -29 6 -43 -8 -71
-38 -78 -111 -95 -280 -67 -114 19 -131 16 -189 -41 -30 -28 -42 -49 -47 -80
-9 -63 -30 -56 -23 8 10 81 47 134 119 170 67 34 70 34 208 4 123 -27 180 3
180 93 0 38 2 43 15 32 8 -7 19 -28 25 -48z m-395 -203 c7 -43 3 -55 -14 -44
-13 8 -15 85 -2 85 5 0 12 -18 16 -41z m383 -43 c6 -49 -7 -74 -51 -104 -57
-39 -74 -42 -158 -25 -132 27 -223 -1 -259 -80 -24 -51 -25 -96 -5 -144 8 -19
15 -40 15 -45 0 -18 -30 14 -57 59 -97 166 -6 318 179 299 199 -20 225 -20
257 3 17 12 34 34 37 47 9 34 38 27 42 -10z m-1248 -70 c0 -2 -8 -10 -17 -17
-16 -13 -17 -12 -4 4 13 16 21 21 21 13z m-38 -128 c-17 -40 -35 -92 -42 -115
-9 -36 -15 -43 -36 -43 -16 0 -37 -12 -54 -30 -28 -30 -60 -40 -60 -19 0 6
-12 9 -27 7 -22 -2 -30 -11 -39 -37 -8 -24 -22 -39 -49 -52 -65 -32 -74 -25
-50 35 7 17 4 18 -33 11 -33 -5 -44 -3 -61 14 -12 12 -21 34 -21 51 0 30 16
41 25 18 3 -8 29 -14 66 -15 55 -2 66 1 106 30 25 17 76 50 113 72 42 24 82
58 102 85 31 41 76 75 86 65 3 -2 -9 -37 -26 -77z m975 0 c35 -67 46 -100 30
-95 -27 8 -86 147 -62 147 2 0 17 -24 32 -52z m-478 -10 c5 -13 19 -49 31 -81
15 -37 44 -81 80 -121 32 -35 59 -68 61 -72 2 -5 22 -22 44 -38 22 -17 81 -67
131 -113 80 -73 94 -90 117 -150 15 -38 27 -81 27 -96 0 -55 58 -127 102 -127
26 0 78 28 78 42 0 6 -8 20 -17 31 -24 26 -23 90 2 118 30 33 80 51 123 44 56
-10 62 -13 56 -29 -7 -17 -63 -36 -109 -36 -52 0 -72 -43 -40 -86 13 -18 14
-16 12 21 -2 31 2 40 16 43 16 3 17 -1 12 -35 -12 -72 -26 -102 -61 -133 -59
-52 -154 -32 -183 38 -17 40 -36 32 -57 -25 -16 -41 -18 -43 -26 -24 -10 27
-28 18 -28 -12 0 -13 -8 -33 -17 -46 l-16 -24 -9 23 c-8 22 -10 21 -53 -25
-25 -26 -48 -59 -50 -74 -3 -14 -10 -39 -15 -55 -5 -16 -8 -32 -5 -34 2 -3 36
3 74 12 58 14 77 15 111 5 30 -9 46 -9 65 -1 32 15 32 2 -1 -21 -19 -14 -34
-17 -63 -12 -41 7 -161 -12 -161 -25 0 -17 50 -19 85 -4 28 11 40 12 51 3 23
-19 16 -38 -21 -56 -19 -9 -35 -20 -35 -24 0 -17 17 -16 57 2 49 22 113 37 98
22 -16 -15 -111 -53 -134 -53 -12 0 -21 -4 -21 -9 0 -19 39 -22 75 -6 41 17
85 21 69 6 -5 -5 -35 -18 -66 -29 -61 -20 -66 -32 -14 -32 l31 -1 -24 -19
c-13 -11 -34 -20 -48 -20 -13 0 -21 -4 -18 -10 3 -5 17 -10 31 -10 46 0 20
-47 -39 -69 -29 -11 -37 -31 -12 -31 8 0 15 -7 15 -15 0 -17 -30 -35 -59 -35
-12 0 -21 -6 -21 -13 0 -7 -9 -18 -20 -25 -33 -20 -24 -34 16 -26 44 8 40 -7
-8 -30 -23 -12 -34 -13 -44 -5 -20 17 -44 3 -44 -25 0 -21 -7 -26 -51 -37 -51
-13 -53 -16 -34 -61 11 -28 -23 -35 -47 -10 -19 18 -20 25 -10 64 6 24 13 55
17 71 6 31 35 37 35 7 0 -36 18 -21 91 72 l71 93 -4 83 c-4 75 -2 85 16 97 28
20 15 28 -54 33 -63 5 -90 24 -90 65 0 11 -5 15 -11 11 -6 -3 -9 -17 -6 -30 3
-19 2 -22 -9 -13 -7 6 -16 19 -19 30 -13 40 -25 16 -25 -48 0 -105 -15 -139
-40 -92 -8 15 -8 67 0 192 l11 172 55 80 c30 44 71 100 91 125 34 43 35 47 29
103 -4 36 -14 70 -27 89 -22 31 -123 102 -162 114 -12 4 -34 15 -50 26 -15 11
-55 31 -89 44 -120 47 -158 91 -100 116 66 29 167 96 197 131 18 21 38 58 45
82 14 50 26 56 39 23z m789 -75 c2 -21 -5 -39 -22 -59 -22 -27 -31 -30 -113
-35 -160 -12 -193 -33 -201 -131 -3 -44 0 -57 18 -75 11 -13 28 -23 37 -23 11
0 14 -3 7 -10 -16 -16 -77 7 -109 40 -22 23 -29 41 -32 82 -8 107 65 162 239
178 103 10 148 27 148 56 0 29 25 8 28 -23z m-1114 1 c30 -29 14 -154 -20
-154 -15 0 -60 52 -69 81 -6 17 1 29 31 55 21 19 39 34 40 34 1 0 10 -7 18
-16z m940 -180 c27 -48 33 -74 17 -74 -11 0 -42 43 -59 83 -15 35 -15 37 2 37
8 0 26 -21 40 -46z m-1374 -44 c0 -11 -33 -30 -52 -30 -7 1 -3 9 11 20 25 22
41 26 41 10z m1590 -68 c0 -49 -31 -67 -112 -64 -65 2 -71 1 -99 -27 -35 -36
-36 -45 -4 -77 32 -32 31 -38 -2 -29 -68 16 -83 80 -37 146 30 43 65 59 138
60 28 1 62 5 76 9 39 12 40 12 40 -18z m-120 -146 c0 -20 -12 -27 -27 -15 -7
6 -13 26 -13 43 l1 31 19 -24 c11 -13 20 -29 20 -35z m-860 -7 c55 -12 70 -24
70 -58 0 -32 34 -79 44 -62 8 13 37 1 71 -29 11 -10 33 -22 49 -27 28 -9 28
-10 11 -27 -19 -19 -49 -19 -177 0 -44 6 -50 4 -99 -35 -29 -23 -64 -44 -78
-47 -14 -3 -41 -12 -59 -20 -40 -17 -64 -18 -80 -2 -8 8 -12 8 -12 1 0 -23 30
-35 73 -29 40 6 43 5 54 -24 10 -27 15 -30 57 -30 24 0 48 -4 51 -10 4 -6 -7
-10 -24 -10 -17 0 -31 -4 -31 -10 0 -5 9 -10 20 -10 41 0 86 -27 100 -59 18
-44 4 -52 -26 -13 -20 25 -33 32 -60 32 -21 0 -33 -4 -29 -10 3 -5 17 -10 30
-10 31 0 65 -44 65 -84 l0 -31 -19 41 c-17 37 -46 62 -59 50 -2 -3 7 -19 21
-36 32 -38 45 -111 26 -148 l-13 -27 -4 28 c-2 19 -12 31 -28 37 -13 6 -27 17
-31 26 -4 12 -10 7 -23 -20 -9 -20 -19 -33 -23 -29 -10 9 -9 -37 2 -75 8 -27
7 -34 -9 -42 -23 -12 -60 -13 -60 -1 0 5 10 15 23 24 28 19 17 31 -15 16 -29
-12 -68 -76 -68 -108 0 -11 -6 -21 -14 -21 -21 0 -36 24 -29 48 7 27 -8 28
-32 2 -23 -26 -35 -25 -35 2 0 29 28 58 56 58 48 0 88 73 98 177 10 106 -7
133 -86 133 -59 0 -96 29 -105 82 -4 28 2 52 25 105 17 37 34 78 37 91 10 37
-9 25 -26 -17 -19 -45 -58 -74 -91 -69 -23 4 -23 5 4 16 29 12 72 64 83 102
22 75 43 98 127 139 78 39 87 41 143 35 33 -3 80 -10 105 -15z m145 -4 c14
-13 25 -29 25 -35 0 -6 8 -10 18 -8 27 4 94 -51 90 -76 -5 -32 -49 -33 -84 -2
-23 20 -25 25 -11 26 27 0 20 15 -23 45 -21 15 -46 38 -55 51 -14 22 -14 24 0
24 9 0 27 -11 40 -25z m72 -717 c-3 -7 -5 -2 -5 12 0 14 2 19 5 13 2 -7 2 -19
0 -25z m-647 -49 c0 -15 -4 -30 -9 -33 -12 -8 -21 18 -21 56 0 26 2 29 15 18
8 -7 15 -25 15 -41z m54 5 c18 -17 14 -29 -15 -44 -17 -10 -19 -7 -19 25 0 38
10 44 34 19z m-29 -90 c9 -9 13 -19 10 -22 -3 -3 -15 4 -27 16 -13 12 -17 22
-11 22 6 0 19 -7 28 -16z m119 -66 c15 -24 6 -29 -44 -20 -42 7 -43 8 -25 25
21 21 54 19 69 -5z m426 -167 c0 -16 -6 -34 -14 -40 -11 -9 -16 -6 -23 16 -13
36 -7 53 18 53 14 0 19 -7 19 -29z"/>
<path d="M3230 5760 c0 -5 9 -14 20 -20 11 -6 20 -17 20 -24 0 -8 7 -19 15
-26 22 -19 20 7 -5 48 -18 30 -50 44 -50 22z"/>
<path d="M5280 8060 l0 -1190 4645 0 4645 0 0 -1235 0 -1235 -6130 0 -6130 0
0 -40 0 -40 6175 0 6175 0 -2 1318 -3 1317 -4647 3 -4648 2 0 1145 0 1145 -40
0 -40 0 0 -1190z"/>
<path d="M13925 9125 c-82 -13 -151 -24 -152 -24 -2 -1 -3 -10 -3 -21 0 -16 7
-20 33 -20 48 0 100 -30 119 -70 16 -31 18 -67 18 -284 l0 -249 -29 39 c-56
77 -118 116 -214 136 -69 15 -163 1 -233 -32 -99 -48 -185 -172 -221 -318 -23
-92 -23 -312 0 -405 47 -189 164 -315 322 -347 143 -29 268 19 353 135 l21 30
1 -72 0 -73 90 0 90 0 0 800 0 800 -22 -1 c-13 -1 -90 -12 -173 -24z m-182
-586 c52 -14 111 -70 142 -133 39 -79 55 -175 55 -327 0 -155 -20 -257 -68
-343 -32 -57 -103 -111 -158 -122 -178 -33 -294 150 -294 466 0 332 128 514
323 459z"/>
<path d="M5660 9071 c0 -16 11 -22 58 -31 79 -16 136 -45 153 -78 12 -22 14
-149 17 -719 l3 -693 222 0 c300 0 412 18 555 85 89 42 183 132 229 220 122
232 123 686 3 925 -42 84 -127 170 -207 213 -153 80 -277 97 -710 97 -312 0
-323 -1 -323 -19z m706 -80 c194 -37 317 -160 369 -371 25 -100 32 -409 11
-527 -31 -176 -96 -296 -201 -368 -84 -57 -150 -76 -278 -82 -123 -6 -150 2
-167 50 -6 20 -10 236 -10 624 0 640 1 652 52 673 30 12 163 12 224 1z"/>
<path d="M9990 9075 c-52 -7 -139 -19 -192 -25 -84 -11 -98 -15 -98 -31 0 -13
10 -20 38 -24 101 -15 145 -30 166 -58 21 -28 21 -36 24 -708 l2 -679 425 0
425 0 0 48 c0 27 3 104 7 170 l6 122 -36 0 c-21 0 -37 -3 -37 -7 0 -38 -25
-143 -40 -173 -32 -63 -59 -70 -284 -70 -214 0 -239 5 -256 53 -6 20 -10 262
-10 713 l0 684 -22 -1 c-13 -1 -66 -7 -118 -14z"/>
<path d="M7513 8629 c-147 -25 -254 -119 -277 -246 l-5 -33 104 0 105 0 0 28
c1 36 31 102 61 129 52 48 168 54 235 14 18 -11 41 -40 55 -67 19 -41 23 -68
27 -186 l5 -138 -61 0 c-89 0 -206 -18 -292 -46 -101 -32 -177 -87 -215 -156
-27 -47 -30 -62 -30 -138 0 -99 19 -144 84 -203 115 -104 329 -80 461 52 l50
50 0 -69 0 -70 90 0 90 0 0 378 c0 216 -5 405 -11 442 -12 74 -40 144 -72 178
-69 75 -239 109 -404 81z m306 -677 c-4 -98 -7 -114 -37 -175 -38 -77 -86
-121 -150 -137 -117 -29 -215 53 -215 179 0 66 18 106 68 150 60 52 173 89
284 90 l53 1 -3 -108z"/>
<path d="M8521 8629 c-79 -13 -159 -57 -198 -107 -40 -52 -53 -98 -53 -182 0
-54 5 -74 30 -116 37 -65 88 -102 266 -193 144 -73 219 -131 230 -178 11 -43
-2 -133 -23 -161 -74 -100 -251 -107 -441 -17 l-73 34 3 -72 3 -72 65 -18 c91
-27 322 -29 400 -5 112 35 196 111 222 202 6 23 11 71 10 107 -1 147 -70 226
-291 334 -152 75 -194 103 -222 149 -22 35 -25 99 -6 136 31 61 138 93 243 72
45 -10 109 -32 192 -69 9 -4 12 12 12 61 l0 65 -37 10 c-113 30 -229 37 -332
20z"/>
<path d="M11213 8629 c-147 -25 -254 -119 -277 -246 l-5 -33 104 0 105 0 0 28
c1 36 31 102 61 129 53 48 169 54 238 12 56 -34 74 -92 79 -251 l4 -138 -60 0
c-89 0 -206 -18 -292 -46 -101 -32 -177 -87 -215 -156 -27 -47 -30 -62 -30
-138 0 -99 19 -144 84 -203 115 -104 324 -81 460 50 l51 49 0 -68 0 -68 91 0
91 0 -4 423 c-4 412 -4 423 -27 480 -12 31 -34 71 -48 88 -68 80 -238 117
-410 88z m306 -677 c-4 -98 -7 -114 -37 -175 -38 -77 -86 -121 -150 -137 -117
-29 -215 53 -215 179 0 66 18 106 68 150 60 52 173 89 284 90 l53 1 -3 -108z"/>
<path d="M12090 8611 c-150 -24 -165 -28 -168 -47 -3 -19 4 -22 48 -28 35 -5
60 -15 83 -36 l32 -28 3 -461 3 -461 89 0 89 0 3 308 c4 286 5 311 26 365 45
121 142 245 221 283 48 24 136 22 170 -3 14 -11 35 -37 46 -59 19 -37 20 -62
23 -466 l4 -428 84 0 85 0 -3 468 -3 467 -27 46 c-33 57 -60 75 -140 95 -80
21 -171 13 -244 -20 -69 -32 -159 -121 -207 -206 l-37 -65 0 153 c0 83 -3 152
-7 151 -5 -1 -82 -13 -173 -28z"/>
<path d="M13545 6354 c-49 -7 -109 -16 -132 -19 -33 -5 -43 -11 -43 -24 0 -14
11 -20 46 -26 29 -4 57 -17 77 -35 l32 -28 3 -671 2 -671 85 0 85 0 0 261 0
262 208 -261 207 -261 98 -1 c76 0 96 3 91 13 -5 6 -109 137 -232 290 l-224
278 150 157 c83 86 169 175 191 197 23 21 41 43 41 47 0 4 -30 8 -67 8 l-68 0
-197 -202 -197 -203 0 453 -1 452 -32 -1 c-18 -1 -73 -7 -123 -15z"/>
<path d="M5601 6325 c-140 -32 -242 -109 -280 -210 -28 -74 -29 -195 -2 -265
42 -110 114 -171 355 -300 248 -132 314 -208 304 -350 -8 -108 -56 -178 -153
-221 -98 -44 -304 -23 -460 45 l-55 25 0 -74 c0 -86 -10 -78 135 -100 196 -29
376 -15 499 39 78 35 157 112 192 189 25 55 29 74 29 162 0 93 -2 105 -33 167
-55 113 -142 180 -407 317 -188 96 -245 156 -253 261 -5 74 9 118 55 163 53
54 114 71 237 65 93 -5 176 -25 299 -73 16 -7 18 -1 15 66 l-3 74 -60 13 c-97
20 -339 24 -414 7z"/>
<path d="M8086 6309 c-44 -38 -56 -87 -32 -135 18 -38 69 -74 104 -74 38 0 92
30 107 61 62 119 -79 236 -179 148z"/>
<path d="M6548 6125 l-78 -68 0 -94 0 -93 -85 0 -85 0 0 -35 0 -35 85 0 85 0
0 -372 c0 -216 5 -392 11 -417 23 -104 87 -142 246 -149 56 -2 117 -2 137 2
34 6 36 9 36 44 l0 37 -82 0 c-92 0 -129 13 -162 58 -20 28 -21 41 -24 413
l-3 384 135 0 136 0 0 35 0 35 -135 0 -135 0 -2 162 -3 161 -77 -68z"/>
<path d="M7367 5889 c-206 -30 -311 -170 -324 -434 -16 -315 114 -527 355
-581 83 -18 257 -16 350 6 50 11 52 13 52 46 l0 35 -47 -8 c-27 -4 -82 -8
-124 -7 -129 1 -246 71 -329 197 -47 72 -85 183 -94 280 l-7 67 316 0 315 0 0
33 c0 149 -74 284 -184 335 -79 38 -167 47 -279 31z m188 -113 c44 -34 85
-115 85 -168 l0 -38 -216 0 -217 0 7 41 c13 78 68 157 131 186 19 8 56 12 101
11 60 -3 76 -8 109 -32z"/>
<path d="M8088 5872 c-137 -22 -158 -28 -158 -44 0 -13 11 -19 42 -24 27 -5
54 -19 77 -40 l36 -32 3 -426 3 -426 79 0 80 0 0 510 c0 281 -1 509 -2 509 -2
-1 -74 -13 -160 -27z"/>
<path d="M8838 5890 c-90 -16 -147 -41 -198 -87 -95 -85 -133 -198 -132 -393
0 -303 114 -475 352 -536 75 -19 269 -15 355 8 46 12 50 15 53 47 l3 34 -38
-7 c-133 -24 -232 -12 -318 38 -135 80 -245 278 -245 443 l0 53 311 0 312 0
-6 81 c-10 145 -83 254 -203 298 -61 23 -179 33 -246 21z m145 -94 c63 -27
107 -93 122 -183 l7 -43 -222 0 -222 0 7 33 c10 48 43 119 68 146 51 55 167
78 240 47z"/>
<path d="M9945 5893 c-112 -25 -173 -84 -220 -212 -13 -33 -14 -26 -14 87 -1
144 21 132 -188 100 -120 -18 -143 -24 -143 -39 0 -11 12 -19 37 -24 55 -10
91 -32 108 -65 13 -25 15 -93 15 -445 l0 -415 84 0 85 0 3 328 3 327 33 68
c47 95 89 122 189 122 l73 0 0 88 c0 95 0 95 -65 80z"/>
<path d="M10238 5871 c-135 -21 -158 -27 -158 -42 0 -13 11 -20 38 -25 55 -10
90 -31 107 -64 13 -25 15 -93 15 -445 l0 -415 85 0 85 0 0 293 c0 316 4 346
57 451 33 65 107 142 150 157 49 16 119 6 148 -21 41 -38 45 -86 45 -494 l0
-386 79 0 79 0 4 303 c4 280 6 306 26 361 28 76 56 121 106 174 52 55 84 72
136 72 56 0 96 -25 117 -74 15 -36 18 -87 21 -438 l4 -398 79 0 79 0 0 403 c0
237 -5 420 -11 447 -25 110 -98 163 -228 164 -64 1 -85 -3 -133 -27 -66 -32
-128 -97 -167 -176 l-28 -54 -6 55 c-14 137 -89 201 -237 201 -62 1 -84 -4
-125 -25 -58 -30 -120 -92 -164 -162 l-31 -50 0 116 c0 64 -3 118 -7 120 -5 3
-79 -7 -165 -21z"/>
<path d="M12077 5890 c-74 -12 -133 -38 -182 -81 -40 -35 -85 -118 -85 -156 0
-22 3 -23 94 -23 l94 0 6 45 c8 49 42 97 87 120 45 24 139 19 179 -8 63 -41
75 -76 78 -224 3 -84 0 -133 -6 -133 -5 0 -56 -5 -113 -11 -296 -29 -431 -126
-431 -307 0 -113 49 -191 144 -232 43 -19 65 -22 129 -18 94 6 168 39 234 104
l45 46 0 -66 0 -66 86 0 85 0 -3 398 c-3 386 -4 399 -26 454 -28 70 -85 122
-155 143 -65 19 -187 26 -260 15z m273 -619 c0 -110 -20 -177 -72 -235 -91
-104 -237 -93 -284 21 -20 48 -18 132 5 169 46 75 174 131 309 133 l42 1 0
-89z"/>
<path d="M12863 5871 c-138 -21 -163 -27 -163 -42 0 -12 11 -19 37 -24 55 -10
91 -32 108 -65 13 -25 15 -93 15 -445 l0 -415 85 0 85 0 0 293 c0 325 6 380
54 459 45 74 98 101 189 95 l68 -4 -3 86 -3 86 -43 -2 c-64 -3 -110 -21 -155
-62 -36 -32 -94 -132 -99 -171 -1 -8 -5 41 -8 110 l-5 126 -162 -25z"/>
<path d="M12037 3860 c-142 -36 -215 -172 -158 -295 25 -55 57 -81 196 -163
66 -40 127 -77 136 -84 28 -23 59 -82 59 -113 0 -44 -35 -94 -78 -112 -54 -23
-179 -14 -259 19 l-63 26 0 -63 0 -63 38 -14 c24 -8 85 -13 172 -13 120 0 141
3 185 23 97 45 139 109 139 212 0 118 -31 154 -233 273 -132 77 -171 115 -171
165 0 101 105 137 268 92 39 -11 74 -20 77 -20 3 0 5 25 5 55 0 51 -2 56 -27
66 -37 15 -238 21 -286 9z"/>
<path d="M2910 3784 l-75 -75 88 -85 c48 -47 87 -87 87 -89 0 -3 -155 -5 -345
-5 l-345 0 0 -105 0 -105 347 0 348 0 -93 -93 -93 -94 78 -71 78 -71 220 219
220 220 -215 215 c-118 118 -217 215 -220 215 -3 0 -39 -34 -80 -76z"/>
<path d="M3870 3425 l0 -435 60 0 60 0 2 211 3 212 159 -212 160 -211 73 0
c40 0 73 2 73 5 0 3 -69 97 -154 208 -84 111 -159 212 -166 223 -12 20 -2 36
136 215 82 107 153 200 157 207 6 9 -9 12 -66 12 l-75 0 -143 -190 c-79 -104
-147 -189 -151 -190 -5 0 -8 86 -8 190 l0 190 -60 0 -60 0 0 -435z"/>
<path d="M5230 3425 l0 -435 55 0 55 0 0 435 0 435 -55 0 -55 0 0 -435z"/>
<path d="M7717 3853 c-4 -3 -7 -199 -7 -435 l0 -428 250 0 250 0 0 50 0 50
-185 0 -185 0 0 150 0 150 170 0 170 0 0 50 0 50 -170 0 -170 0 0 135 0 135
175 0 175 0 0 50 0 50 -233 0 c-129 0 -237 -3 -240 -7z"/>
<path d="M5643 3763 l-53 -34 0 -69 0 -70 -55 0 -55 0 0 -45 0 -45 55 0 55 0
0 -212 c0 -234 3 -247 59 -285 29 -20 47 -23 122 -23 l89 0 0 44 0 43 -55 -1
c-44 0 -59 4 -78 22 -21 22 -22 31 -25 217 l-4 195 86 0 86 0 0 45 0 45 -85 0
-84 0 -3 103 -3 104 -52 -34z"/>
<path d="M14313 3763 l-53 -34 0 -69 0 -70 -55 0 -55 0 0 -45 0 -45 55 0 55 0
0 -212 c0 -234 3 -247 59 -285 29 -20 47 -23 122 -23 l89 0 0 44 0 43 -55 -1
c-44 0 -59 4 -78 22 -21 22 -22 31 -25 217 l-4 195 86 0 86 0 0 45 0 45 -85 0
-84 0 -3 103 -3 104 -52 -34z"/>
<path d="M6855 3586 c-31 -14 -74 -56 -93 -91 -9 -17 -11 -10 -12 38 l0 57
-55 0 -55 0 0 -300 0 -300 54 0 54 0 4 178 c3 162 5 181 26 220 26 48 69 79
125 88 l37 7 0 58 c0 58 -1 59 -27 59 -16 -1 -41 -7 -58 -14z"/>
<path d="M9200 3578 c-27 -14 -55 -39 -70 -62 l-25 -39 -3 57 -3 56 -54 0 -55
0 0 -300 0 -300 54 0 53 0 5 173 c4 154 7 178 27 219 25 52 65 83 124 93 l37
7 0 59 c0 55 -2 59 -23 59 -12 0 -43 -10 -67 -22z"/>
<path d="M9530 3587 c-56 -18 -123 -93 -144 -160 -25 -79 -19 -242 10 -307 46
-101 125 -144 252 -139 66 3 86 9 127 34 92 57 137 190 115 341 -15 110 -58
182 -135 222 -38 19 -177 26 -225 9z m179 -103 c90 -75 78 -355 -16 -405 -37
-20 -98 -17 -130 7 -51 37 -68 87 -67 199 0 116 13 164 55 200 43 36 115 35
158 -1z"/>
<path d="M10245 3586 c-17 -7 -45 -30 -63 -50 l-32 -37 0 46 0 45 -55 0 -55 0
0 -435 0 -435 55 0 55 0 0 173 c1 167 1 171 19 150 55 -66 174 -86 242 -40 75
50 110 144 110 291 1 199 -71 307 -203 306 -24 -1 -57 -7 -73 -14z m105 -104
c67 -68 68 -310 0 -385 -38 -43 -98 -43 -141 -1 -80 81 -71 330 14 396 35 28
93 23 127 -10z"/>
<path d="M10778 3590 c-71 -21 -128 -87 -128 -148 0 -20 5 -22 60 -22 54 0 60
2 60 20 0 65 112 96 161 44 20 -21 24 -36 24 -87 l0 -62 -65 -6 c-168 -16
-260 -82 -260 -188 0 -99 62 -161 162 -161 66 0 112 18 145 58 l23 27 0 -37 0
-38 56 0 55 0 -3 248 c-3 284 -7 299 -88 340 -46 23 -145 29 -202 12z m177
-340 c4 -6 1 -34 -5 -61 -14 -58 -62 -113 -106 -122 -93 -17 -121 107 -35 157
54 31 134 45 146 26z"/>
<path d="M12728 3580 c-20 -11 -45 -31 -56 -45 l-21 -26 -3 38 -3 38 -57 3
-58 3 0 -436 0 -435 60 0 60 0 0 171 0 172 21 -27 c31 -39 71 -56 134 -56 66
0 100 16 143 65 47 53 67 130 66 260 -1 116 -14 168 -55 226 -46 65 -156 88
-231 49z m112 -98 c40 -40 53 -99 48 -217 -5 -119 -23 -165 -74 -190 -39 -18
-89 -9 -118 23 -45 51 -62 222 -30 315 32 93 116 126 174 69z"/>
<path d="M13265 3577 c-61 -30 -87 -57 -117 -122 -19 -43 -23 -67 -23 -165 0
-99 3 -122 23 -165 49 -105 112 -144 236 -145 128 0 204 51 243 165 23 66 23
231 0 293 -41 108 -107 154 -231 159 -70 4 -88 1 -131 -20z m200 -100 c18 -18
38 -51 44 -72 14 -52 14 -174 0 -231 -33 -131 -178 -151 -238 -31 -20 40 -23
62 -23 145 0 159 38 222 134 222 43 0 55 -5 83 -33z"/>
<path d="M14003 3580 c-29 -13 -52 -34 -73 -66 l-30 -48 0 62 0 62 -55 0 -55
0 0 -300 0 -300 55 0 55 0 0 132 c0 72 5 161 11 197 10 57 18 72 53 107 30 30
52 43 84 49 l42 7 0 59 c0 55 -2 59 -22 59 -13 0 -42 -9 -65 -20z"/>
<path d="M4552 3348 c4 -268 9 -292 67 -341 27 -23 42 -27 92 -27 79 0 131 27
170 87 l29 47 0 -62 0 -62 55 0 55 0 0 300 0 300 -54 0 -54 0 -4 -167 c-3
-148 -7 -174 -27 -219 -31 -71 -69 -105 -124 -111 -39 -5 -46 -2 -65 22 -21
27 -22 37 -22 251 l0 224 -61 0 -61 0 4 -242z"/>
<path d="M5980 3348 c0 -218 2 -247 20 -285 28 -63 69 -85 151 -81 77 4 126
33 159 96 l19 37 1 -62 0 -63 55 0 55 0 0 300 0 300 -54 0 -54 0 -4 -167 c-3
-151 -6 -173 -27 -221 -44 -98 -125 -140 -182 -93 -24 19 -24 21 -27 250 l-3
231 -55 0 -54 0 0 -242z"/>
<path d="M8332 3343 c3 -276 10 -306 72 -344 38 -23 134 -26 174 -5 29 15 73
59 90 91 9 17 11 10 12 -37 l0 -58 60 0 60 0 0 300 0 300 -59 0 -60 0 -3 -172
c-3 -163 -5 -176 -30 -230 -30 -64 -73 -98 -124 -98 -73 0 -83 36 -84 303 l0
197 -55 0 -56 0 3 -247z"/>
<path d="M7045 3043 c-3 -65 -7 -129 -8 -143 -2 -23 1 -25 49 -28 l52 -3 21
118 c12 65 24 130 27 146 l6 27 -70 0 -70 0 -7 -117z"/>
<path d="M11246 3128 c-3 -18 -8 -84 -11 -146 l-7 -113 53 3 54 3 26 143 26
142 -68 0 -68 0 -5 -32z"/>
<path d="M2310 2355 l0 -45 6175 0 6175 0 0 45 0 45 -6175 0 -6175 0 0 -45z"/>
</g>
</svg>
